<svg version="1.1" viewBox="0.0 0.0 960.0 540.0" fill="none" stroke="none" stroke-linecap="square" stroke-miterlimit="10" xmlns:xlink="http://www.w3.org/1999/xlink" xmlns="http://www.w3.org/2000/svg"><clipPath id="g6f38c3e802_0_598.0"><path d="m0 0l960.0 0l0 540.0l-960.0 0l0 -540.0z" clip-rule="nonzero"/></clipPath><g clip-path="url(#g6f38c3e802_0_598.0)"><path fill="#000000" fill-opacity="0.0" d="m0 0l960.0 0l0 540.0l-960.0 0z" fill-rule="evenodd"/><path fill="#d49670" d="m597.905 301.36234c-4.8379517 0 -4.8379517 10.352081 -4.8379517 10.352081l-95.149536 0l-4.752228 36.9227c0 0 83.12131 -15.142395 94.22574 -15.142395c0.17144775 0 0.32385254 0 0.45715332 0.009521484c7.6759644 0.3999939 9.828308 7.3236084 13.818665 7.3236084c0.6951904 0 1.4570923 -0.20953369 2.295166 -0.70474243c5.6760254 -3.314209 5.199829 -17.999481 7.104553 -18.923248c1.8856201 -0.95236206 18.447021 -8.056915 9.942505 -11.371094c-2.0665894 -0.7999878 -4.1046143 -1.1047363 -6.0093384 -1.1047363c-5.961731 0 -10.590149 2.990387 -10.590149 2.990387c0 0 1.9142456 -7.1140747 -4.70459 -9.942566c-0.666687 -0.28570557 -1.2666626 -0.40951538 -1.7999878 -0.40951538z" fill-rule="evenodd"/><path fill="#ffd966" d="m558.547 259.2654c-0.07623291 0 -0.15240479 0 -0.22857666 0c-12.780579 0.4571228 -12.780579 23.799286 -3.0856323 24.246887c0.15234375 0.009521484 0.31427002 0.009521484 0.4666748 0.009521484c9.390198 0 13.551941 -11.990112 7.90448 -16.313812l0 0c0.009521484 0 38.80841 28.189636 41.44641 40.960693c2.6380005 12.809143 -22.932678 64.350464 -31.760986 66.13138c-0.6094971 0.123809814 -1.1142578 0.18093872 -1.5523071 0.18093872c-5.3998413 0 1.647583 -8.742584 -6.999817 -8.742584c-0.7047119 0 -1.5142212 0.057128906 -2.4379883 0.18093872c-11.675842 1.5523376 -9.609253 18.589905 2.276123 18.589905c1.5713501 0 3.3046265 -0.30474854 5.2093506 -0.9713745c16.313782 -5.733185 49.34137 -66.550415 47.59857 -77.12152c-1.7427979 -10.504456 -45.76056 -47.15097 -58.836304 -47.15097z" fill-rule="evenodd"/><path fill="#ffc39f" d="m460.39038 394.22324l-56.036438 32.04669c0 0 19.266083 23.13263 34.398987 48.64615c13.466248 22.713623 16.818542 25.913513 22.19934 25.913513c0.666626 0 1.3618469 -0.047607422 2.1142273 -0.11428833c6.8092957 -0.57141113 30.256226 -14.237671 31.437134 -18.085175c1.2095032 -3.8570251 -2.647522 -5.9236145 -2.647522 -5.9236145c0 0 6.4950256 -7.4283447 2.3618164 -8.609283c-0.21902466 -0.057128906 -0.4571228 -0.08569336 -0.7142639 -0.08569336c-4.5808105 0 -14.73288 9.542572 -20.342255 14.04718c-1.6856384 1.3428345 -2.7046814 1.8285217 -3.2951355 1.8285217c-1.4761353 0 -0.27618408 -3.0475159 -0.27618408 -3.0475159c0 0 4.4570312 -12.132965 0.28570557 -39.43692c-4.133209 -27.303955 -9.485413 -47.179565 -9.485413 -47.179565z" fill-rule="evenodd"/><path fill="#ffb58a" d="m419.57678 306.1435c-14.980499 0 -43.45584 1.7047119 -74.264435 12.447235c-45.13199 15.770966 -27.26587 83.4642 4.6855774 103.473114c8.637817 5.409363 19.427979 7.83786 31.151459 7.83786c31.589508 0 69.931244 -17.580414 91.05441 -41.484467c28.951508 -32.77997 25.037354 -74.950165 25.037354 -74.950165l-66.64563 -6.9521484c0 0 -4.047516 -0.37142944 -11.018738 -0.37142944z" fill-rule="evenodd"/><path fill="#ffc39f" d="m354.79697 359.7552c-2.628479 0 -5.180786 0.38095093 -7.599762 1.1713867c-24.342133 7.999756 -20.68509 37.6846 -20.68509 37.6846l5.323639 26.380157c0 0 -18.351837 -16.332855 -22.675507 -17.009003c-0.28570557 -0.04763794 -0.55236816 -0.06668091 -0.81903076 -0.06668091c-3.8475037 0 -6.4283752 4.657013 -14.856689 18.066132c-9.018768 14.332916 -3.666565 36.351288 2.3237305 42.01779c2.38089 2.2475586 5.752228 2.9237366 8.952118 2.9237366c4.8950806 0 9.399719 -1.5904236 9.399719 -1.5904236c0 0 1.2571106 5.685547 4.2855835 5.685547c0.7809448 0 1.685669 -0.38095093 2.714203 -1.3428345c5.009369 -4.6474915 -9.009247 -33.008545 -9.009247 -33.008545l0 0c0 0 24.018341 21.666016 42.37018 28.665833c2.228485 0.8571167 4.571289 1.2666016 6.96167 1.2666016c17.266174 0 37.398895 -21.275543 42.093994 -50.28421c4.790344 -29.751495 -25.027832 -60.56009 -48.77951 -60.56009z" fill-rule="evenodd"/><path fill="#ffffff" d="m387.0449 308.1436c0 0 -12.647247 1.618988 -28.761047 3.4379883c-16.123322 1.8475647 -41.770172 9.171143 -45.427216 38.48456c-3.666565 29.313416 14.494812 52.627014 14.494812 52.627014c0 0 -6.4855347 -41.979706 29.437195 -41.979706c1.8475647 0 3.8094177 0.11428833 5.885559 0.34283447c42.493958 4.7522583 39.57025 67.02658 39.57025 67.02658c0.14285278 0 0.29522705 0 0.44760132 0c10.837769 0 34.72278 -13.190094 34.72278 -13.190094c0 0 -18.704224 -4.399872 -27.846802 -28.570557c-9.171143 -24.189758 -2.923706 -66.302795 -2.923706 -66.302795l-19.599426 -11.875824z" fill-rule="evenodd"/><path fill="#20124d" d="m554.52686 263.05603c-3.3427734 4.809387 -32.399048 47.379547 -29.084839 56.141174c3.2474976 8.494995 31.884766 47.65573 33.122803 49.312836l1.8856812 -1.4094849c-0.28570557 -0.40951538 -29.65625 -40.551178 -32.77997 -48.741394c-2.1999512 -5.733185 16.504272 -36.151306 28.799133 -53.960297l-1.94281 -1.3428345z" fill-rule="evenodd"/><path fill="#20124d" d="m525.66125 314.06763l0 3.1237183l115.41559 0l0 -3.1237183z" fill-rule="evenodd"/><path fill="#ff5864" d="m646.9295 292.29532c-0.2571411 0 -0.5142212 0.009521484 -0.7713623 0.038085938c-10.999695 1.2190247 -16.789978 13.190094 -5.19989 23.161224c0 0 -10.580627 5.39032 -7.5806885 15.770935c1.0952148 3.7903748 4.571289 5.8760376 9.018738 5.8760376c7.723633 0 18.351868 -6.323639 24.304077 -21.037476c0 0 -9.142578 -23.808807 -19.770874 -23.808807z" fill-rule="evenodd"/><path fill="#ff5864" d="m523.28 304.572c-3.2855835 0 -3.8569946 0.19049072 -3.8569946 0.19049072l6.7807007 10.066345l24.599304 -0.3809204c0 0 -3.8951416 -5.0284424 -6.5997925 -5.0284424c-0.352417 0 -0.76190186 0 -1.2190552 0c-2.9713135 0 -7.6950073 -0.14285278 -10.40918 -2.333252c-3.0856323 -2.5142212 -5.9902954 -2.5142212 -9.294983 -2.5142212z" fill-rule="evenodd"/><path fill="#ff5864" d="m525.661 317.19156l-3.7236938 7.5521545c0 0 9.485474 -2.1332703 14.332947 -3.3237c0.6380615 -0.14285278 1.2094727 -0.20953369 1.7427979 -0.20953369c3.3808594 0 5.0665283 2.57135 7.5045166 2.57135c0.1428833 0 0.28570557 -0.009521484 0.43811035 -0.028564453c3.0951538 -0.38095093 5.4188843 -6.3712463 5.4188843 -6.3712463l-25.713562 -0.1904602z" fill-rule="evenodd"/><path fill="#ffc39f" d="m512.6086 320.0774c-0.13330078 0 -0.2571411 0 -0.3904419 0.009521484c-7.3616943 0.2571411 -10.894928 15.742401 -10.380646 21.06604c0.3904724 4.218933 -21.780304 22.294586 -34.16089 22.294586c-3.3237 0 -5.942688 -1.3047485 -7.228363 -4.5236816c0 0 -15.98999 -31.484772 -28.40866 -31.484772c-0.09524536 0 -0.19049072 0.009521484 -0.29525757 0.009521484c-12.418671 0.5142517 -12.932922 25.38971 -1.7808838 48.22711c10.904449 22.275543 26.132568 36.85605 36.779846 36.85605c0.27618408 0 0.5428467 -0.009521484 0.8095093 -0.028564453c10.675873 -0.76187134 41.63684 -50.265167 45.427246 -56.388794c0 0 7.314026 3.0761108 12.066284 3.0761108c1.0571289 0 1.9904175 -0.15237427 2.685608 -0.5238037c3.7904053 -2.038025 4.552246 -19.047058 2.7713623 -21.056519c0 0 8.628296 -0.76187134 11.180603 -4.0760803c2.4856567 -3.2094116 -5.6950684 -8.390228 -14.8376465 -8.390228c-0.21905518 0 -0.42852783 0 -0.647583 0.009552002c-9.399719 0.2571106 -10.923462 1.5332642 -10.923462 1.5332642c0 0 4.180786 -6.609314 -2.666626 -6.609314z" fill-rule="evenodd"/><path fill="#ffc39f" d="m454.0616 108.03071c-14.456696 0 -30.21814 2.0666046 -47.360504 6.3712387c-71.58832 17.970886 -82.21658 90.89253 -82.21658 90.89253c-21.637451 3.980835 -18.323273 39.598816 -0.990448 65.55995c7.33313 10.999664 15.142395 14.17099 21.704132 14.17099c8.933044 0 15.570953 -5.856964 15.570953 -5.856964c0 0 9.294952 13.66626 26.27539 28.96106c10.037811 9.056854 24.38977 15.199524 47.64621 15.199524c16.075714 0 36.41797 -2.9332275 62.550507 -9.875885c63.902893 -16.980438 84.540344 -100.187485 56.579285 -148.10988c-21.275574 -36.456055 -53.893646 -57.31257 -99.75894 -57.31257z" fill-rule="evenodd"/><path fill="#ff5864" d="m494.7165 219.6638c-2.323761 0 -4.895111 0.56188965 -7.666443 1.8570862c-16.942352 7.8950043 -7.2950134 25.41829 -7.2950134 25.41829c1.676117 2.8665771 5.2569885 4.2665405 9.380676 4.2665405c5.9617004 0 13.075775 -2.9427795 17.218536 -8.628311c5.866455 -8.08548 0.28570557 -22.913605 -11.637756 -22.913605z" fill-rule="evenodd"/><path fill="#4c1130" d="m460.6586 137.27951c-3.4094238 0 -8.2283325 0.24760437 -13.971039 1.2094879c-11.561554 1.980896 -7.266449 11.19014 -7.266449 11.19014c0 0 11.380615 -8.637833 26.70398 -12.142487c0 0 -1.999939 -0.2571411 -5.4664917 -0.2571411z" fill-rule="evenodd"/><path fill="#4c1130" d="m428.48666 152.22298c-3.1427612 0 -5.1522217 1.4094849 -5.1522217 1.4094849c-16.085236 10.571106 -16.875702 20.189865 -16.875702 20.189865l0 0c6.876007 -9.018784 27.484894 -20.189865 27.484894 -20.189865c-2.0285034 -1.0571136 -3.8855896 -1.4094849 -5.45697 -1.4094849z" fill-rule="evenodd"/><path fill="#ff9381" d="m466.46918 152.89919c-2.038025 0 -4.3236694 0.37142944 -6.847412 1.3047333l0.41903687 4.8950806c2.4951477 -2.0570831 5.4188843 -2.7522888 8.218811 -2.7522888c5.7617188 0 11.018707 2.9522858 11.018707 2.9522858c0 0 -4.361786 -6.399811 -12.809143 -6.399811z" fill-rule="evenodd"/><path fill="#ff9381" d="m422.3157 180.45268c-10.475891 8.952118 -3.1808777 26.694443 -3.1808777 26.694443c0 0 -2.4284973 -19.58989 9.71402 -25.580185l-6.533142 -1.1142578z" fill-rule="evenodd"/><path fill="#4a3527" d="m469.81244 247.55064l0 0c1.4761658 13.028183 11.685364 18.789902 19.447052 18.789902c0.9999695 0 1.961853 -0.095214844 2.8570557 -0.28570557c7.83786 -1.657074 11.180634 -13.761475 11.180634 -13.761475l0 0c0 0 -5.2189026 9.723511 -14.713867 10.447296c-0.21902466 0.009521484 -0.43807983 0.019042969 -0.647583 0.019042969c-9.209259 0 -16.942352 -14.51384 -16.942352 -14.51384l-1.1809387 -0.69522095z" fill-rule="evenodd"/><path fill="#75443b" d="m488.6982 236.74068c-0.6476135 0 -1.3142395 0.19999695 -1.999939 0.676178c-4.933197 3.4094238 -1.94281 8.437836 -1.94281 8.437836c0 0 0.7333069 -5.409363 3.980835 -6.0855255c0.18093872 -0.038101196 0.36190796 -0.04762268 0.5428467 -0.04762268c3.1141968 0 6.5045776 4.9236603 6.5045776 4.9236603c0 0 -3.0570679 -7.9045258 -7.0855103 -7.9045258z" fill-rule="evenodd"/><path fill="#ff9381" d="m323.00784 203.54886c-2.8856506 0 -5.7617493 0.56188965 -8.599762 1.8475647c-22.456482 10.161606 -6.590271 66.169464 19.466095 77.25485c4.752228 2.018982 8.971161 2.8475342 12.685333 2.8475342c16.647125 0 23.246918 -16.60904 23.246918 -16.60904c0 0 10.485413 -17.68518 -7.1712036 -38.360764c0 0 -19.675598 -26.980148 -39.62738 -26.980148z" fill-rule="evenodd"/><path fill="#ff5864" d="m332.5993 221.66388c-0.7713928 0 -1.5237732 0.0952301 -2.25708 0.29522705c-12.932953 3.5427551 -9.904449 20.047028 -9.904449 20.047028c0 0 4.0093994 -14.723373 13.237701 -14.723373c0.076171875 0 0.15237427 0 0.23806763 0c9.161652 0.24760437 24.189758 16.313797 26.742065 20.342255l0 0c-1.618988 -2.6475372 -16.151886 -25.961136 -28.056305 -25.961136zm28.056305 25.961136c0.09524536 0.15237427 0.14285278 0.23808289 0.14285278 0.23808289c-0.047607422 -0.076187134 -0.095214844 -0.15237427 -0.14285278 -0.23808289z" fill-rule="evenodd"/><path fill="#4c1130" d="m500.9656 39.16125c-17.408997 0 -42.922546 34.275166 -47.112885 45.903393c0 0 -1.304718 -1.3047256 -3.6570435 -1.3047256c-0.8475952 0 -1.8380432 0.16190338 -2.942749 0.6285553c-4.1427307 1.7237625 -12.132996 11.085388 -12.132996 11.085388c0 0 13.532959 -23.923103 5.923645 -25.989708c-0.27618408 -0.076187134 -0.56188965 -0.1142807 -0.8571167 -0.1142807c-7.894989 0 -22.399323 26.103989 -22.399323 26.103989c0 0 10.161591 -21.904114 5.0188904 -21.904114c-0.15237427 0 -0.31427002 0.019050598 -0.49520874 0.057144165c-6.2474365 1.3999557 -16.666199 27.742027 -16.666199 27.742027c0 0 -3.7617798 -0.5904541 -9.666351 -0.5904541c-14.742432 0 -42.798737 3.7141724 -58.62683 29.741966c-22.208862 36.408432 -19.43753 72.8264 -19.43753 72.8264c0 0 12.142517 1.0190125 14.913849 2.4189758c0 0 18.380402 13.856735 26.694458 22.208862c8.352112 8.314041 9.713989 10.028275 9.713989 10.028275c0 0 0.35235596 -20.094635 -11.085388 -28.094406c-11.466339 -7.96167 -15.60907 -9.685425 -15.60907 -9.685425l0 0c0 0 3.3903809 0.87615967 7.4093018 0.87615967c3.580841 0 7.6569214 -0.6952057 10.275879 -3.3237l-12.494843 -2.4284973c0 0 29.818146 -14.199585 62.093384 -38.132202c22.82788 -16.942352 31.22763 -34.05613 34.189453 -42.608253l0 0c-3.5522766 12.418678 -13.113892 41.827324 -25.875427 50.227074l0 0c0 0 18.380402 -5.542694 27.742035 -27.751556c9.371155 -22.170761 8.666412 -26.694435 8.666412 -26.694435c0 0 4.571289 -0.7523651 11.656799 -0.7523651c13.390076 0 35.751312 2.6665878 53.207916 18.085175c0 0 3.4760742 -5.1903152 2.4190063 -12.132965l0 0c0 0 3.352295 0.79997253 7.3235474 0.79997253c4.6951294 0 10.2282715 -1.1142502 12.104431 -5.999817c3.4760742 -9.018784 -7.2855225 -36.40844 -25.665894 -36.76081c-0.17144775 0 -0.333313 -0.009529114 -0.49523926 -0.009529114c-10.447296 0 -21.266022 6.256958 -28.608673 11.609184l0 0c12.894867 -11.361572 33.808502 -32.741882 22.151733 -43.141575c-2.2666016 -2.028511 -4.866516 -2.9237213 -7.6759644 -2.9237213z" fill-rule="evenodd"/><path fill="#ff9381" d="m449.1818 221.66388c-5.3807983 0 -13.8281555 0.78092957 -22.151733 4.7236633c-10.733002 5.123657 -6.9331055 8.942596 2.7904053 8.942596c2.7427673 0 5.9712524 -0.30474854 9.475891 -0.971405c15.894775 -3.0570526 21.31366 -9.913986 15.60907 -12.3615265c0 0 -2.1999207 -0.33332825 -5.723633 -0.33332825z" fill-rule="evenodd"/><path fill="#ff9381" d="m509.73624 176.72873c-1.0856628 0 -2.4856262 0.3618927 -4.237976 1.2094879c0 0 -12.142487 7.1331177 -12.390106 16.913773c-0.08569336 2.7046814 0.9428406 3.7713165 2.5332642 3.7713165c4.1617737 0 12.218689 -7.228348 14.885284 -11.418701c2.952301 -4.6569977 3.5522766 -10.475876 -0.7904663 -10.475876z" fill-rule="evenodd"/><path fill="#ffffff" d="m353.84732 286.04745c-0.3237915 0 -0.6380615 0.019042969 -0.95236206 0.047607422c-11.428223 1.1809082 8.095001 12.009155 8.095001 12.009155c0 0 -9.723511 -4.95224 -16.285217 -4.95224c-1.9904175 0 -3.685608 0.45715332 -4.7427063 1.6380615c-2.0380554 2.333252 2.1808777 4.4093933 7.3997498 5.980774l0 0c-2.1713562 0.06665039 -4.095093 0.5809326 -5.2950745 1.8570862c-4.333191 4.609375 13.971008 8.428314 26.046844 8.428314c0.43807983 0 0.8666382 -0.009521484 1.285675 -0.019042969c12.047272 -0.3237915 15.647156 -4.5236816 15.647156 -4.5236816c0 0 -19.62799 -20.466034 -31.199066 -20.466034z" fill-rule="evenodd"/><path fill="#4c1130" d="m435.61484 200.30882l0 0c-2.0151367 -4.6546936 -1.9691162 -9.164322 0.1027832 -10.072556l0 0c0.9949646 -0.43614197 2.3335876 0.03352356 3.721405 1.3056793c1.3878174 1.272171 2.7111206 3.2426147 3.678833 5.4778748l0 0c2.0151367 4.6546783 1.9691162 9.164322 -0.1027832 10.072556l0 0c-2.0718994 0.9082184 -5.3851013 -2.1288757 -7.400238 -6.783554z" fill-rule="evenodd"/><path fill="#4c1130" d="m465.48132 174.22812l0 0c-2.0151367 -4.6546936 -1.9691162 -9.164322 0.1027832 -10.072556l0 0c0.9949646 -0.43614197 2.3335876 0.03352356 3.721405 1.3056793c1.3878174 1.272171 2.7111206 3.2426147 3.678833 5.4778748l0 0c2.0151367 4.6546783 1.9691162 9.164322 -0.1027832 10.072556l0 0c-2.0718994 0.9082184 -5.3851013 -2.1288757 -7.400238 -6.783554z" fill-rule="evenodd"/></g></svg>